<mxfile host="65bd71144e">
    <diagram id="BssXUNw3xtQGtV8NK0rr" name="Page-1">
        <mxGraphModel dx="1146" dy="757" grid="0" gridSize="10" guides="1" tooltips="1" connect="1" arrows="1" fold="1" page="1" pageScale="1" pageWidth="850" pageHeight="1100" background="#ffffff" math="0" shadow="0">
            <root>
                <mxCell id="0"/>
                <mxCell id="1" parent="0"/>
                <mxCell id="3" value="Passager" style="shape=umlActor;verticalLabelPosition=bottom;verticalAlign=top;html=1;fillColor=#dae8fc;strokeColor=#6c8ebf;fontColor=#080707;" parent="1" vertex="1">
                    <mxGeometry x="62" y="196" width="30" height="60" as="geometry"/>
                </mxCell>
                <mxCell id="4" value="Conducteur" style="shape=umlActor;verticalLabelPosition=bottom;verticalAlign=top;html=1;fillColor=#fa6800;strokeColor=#C73500;fontColor=#000000;" parent="1" vertex="1">
                    <mxGeometry x="64" y="435" width="30" height="60" as="geometry"/>
                </mxCell>
                <mxCell id="5" value="recherche &lt;br&gt;covoitureur" style="ellipse;whiteSpace=wrap;html=1;fillColor=#e3c800;strokeColor=#100f0a;fontColor=#000000;" parent="1" vertex="1">
                    <mxGeometry x="325" y="147" width="140" height="70" as="geometry"/>
                </mxCell>
                <mxCell id="6" value="recherche simple&lt;br&gt;(ville)" style="ellipse;whiteSpace=wrap;html=1;fillColor=#f0a30a;strokeColor=#0b0a0a;fontColor=#000000;strokeWidth=3;" parent="1" vertex="1">
                    <mxGeometry x="250" y="352" width="140" height="83" as="geometry"/>
                </mxCell>
                <mxCell id="8" value="recherche avancÃ©e&lt;br&gt;(ville, nom, type covoitureur, autour de moi,sur mon trajet)" style="ellipse;whiteSpace=wrap;html=1;fillColor=#f0a30a;strokeColor=#0b0a0a;fontColor=#000000;strokeWidth=3;" parent="1" vertex="1">
                    <mxGeometry x="368" y="429" width="248" height="121" as="geometry"/>
                </mxCell>
                <mxCell id="9" value="Passager : contacter conducteur&lt;br&gt;Conducteur : contacter passager" style="ellipse;whiteSpace=wrap;html=1;fillColor=#60a917;strokeColor=#020302;fontColor=#060404;strokeWidth=3;" parent="1" vertex="1">
                    <mxGeometry x="573" y="151" width="248" height="121" as="geometry"/>
                </mxCell>
                <mxCell id="10" value="S'identifier" style="ellipse;whiteSpace=wrap;html=1;fillColor=#60a917;strokeColor=#020302;fontColor=#060404;strokeWidth=3;" parent="1" vertex="1">
                    <mxGeometry x="680" y="424" width="138" height="39" as="geometry"/>
                </mxCell>
                <mxCell id="11" value="" style="endArrow=none;html=1;fontColor=#060404;exitX=0.5;exitY=0.5;exitDx=0;exitDy=0;exitPerimeter=0;entryX=0;entryY=0.5;entryDx=0;entryDy=0;fillColor=#0050ef;strokeColor=#001DBC;" parent="1" source="3" target="5" edge="1">
                    <mxGeometry width="50" height="50" relative="1" as="geometry">
                        <mxPoint x="216" y="230" as="sourcePoint"/>
                        <mxPoint x="266" y="180" as="targetPoint"/>
                    </mxGeometry>
                </mxCell>
                <mxCell id="12" value="" style="endArrow=none;html=1;fontColor=#060404;exitX=0.5;exitY=0.5;exitDx=0;exitDy=0;exitPerimeter=0;fillColor=#f0a30a;strokeColor=#BD7000;entryX=0;entryY=0.5;entryDx=0;entryDy=0;" parent="1" source="4" target="5" edge="1">
                    <mxGeometry width="50" height="50" relative="1" as="geometry">
                        <mxPoint x="87" y="236" as="sourcePoint"/>
                        <mxPoint x="304" y="215" as="targetPoint"/>
                    </mxGeometry>
                </mxCell>
                <mxCell id="13" value="" style="endArrow=classic;html=1;fontColor=#060404;exitX=0.5;exitY=0;exitDx=0;exitDy=0;entryX=0;entryY=1;entryDx=0;entryDy=0;strokeColor=#0b0a0a;strokeWidth=2;" parent="1" source="6" target="5" edge="1">
                    <mxGeometry width="50" height="50" relative="1" as="geometry">
                        <mxPoint x="399" y="413" as="sourcePoint"/>
                        <mxPoint x="449" y="363" as="targetPoint"/>
                    </mxGeometry>
                </mxCell>
                <mxCell id="14" value="" style="endArrow=classic;html=1;fontColor=#060404;exitX=0.5;exitY=0;exitDx=0;exitDy=0;entryX=0.5;entryY=1;entryDx=0;entryDy=0;strokeColor=#0b0a0a;strokeWidth=2;" parent="1" source="8" target="5" edge="1">
                    <mxGeometry width="50" height="50" relative="1" as="geometry">
                        <mxPoint x="450.75" y="385.25" as="sourcePoint"/>
                        <mxPoint x="533.2525253169417" y="241.99873734152914" as="targetPoint"/>
                    </mxGeometry>
                </mxCell>
                <mxCell id="19" value="&amp;lt;&amp;lt;include&amp;gt;&amp;gt;" style="html=1;verticalAlign=bottom;labelBackgroundColor=none;endArrow=open;endFill=0;dashed=1;strokeColor=#0b0a0a;strokeWidth=2;fontColor=#060404;exitX=0;exitY=0.5;exitDx=0;exitDy=0;entryX=1;entryY=0.5;entryDx=0;entryDy=0;" parent="1" source="9" target="5" edge="1">
                    <mxGeometry width="160" relative="1" as="geometry">
                        <mxPoint x="544" y="349" as="sourcePoint"/>
                        <mxPoint x="537" y="314" as="targetPoint"/>
                    </mxGeometry>
                </mxCell>
                <mxCell id="20" value="&amp;lt;&amp;lt;include&amp;gt;&amp;gt;" style="html=1;verticalAlign=bottom;labelBackgroundColor=none;endArrow=open;endFill=0;dashed=1;strokeColor=#0b0a0a;strokeWidth=2;fontColor=#060404;exitX=0.536;exitY=1;exitDx=0;exitDy=0;entryX=0.5;entryY=0;entryDx=0;entryDy=0;exitPerimeter=0;" parent="1" source="9" target="10" edge="1">
                    <mxGeometry width="160" relative="1" as="geometry">
                        <mxPoint x="644" y="347.5" as="sourcePoint"/>
                        <mxPoint x="536" y="318" as="targetPoint"/>
                    </mxGeometry>
                </mxCell>
                <mxCell id="21" value="&lt;span style=&quot;background-color: rgb(247, 247, 247);&quot;&gt;&lt;span style=&quot;color: rgb(0, 0, 0); font-family: Calibri, sans-serif; font-size: 20px; text-align: start;&quot;&gt;Diagramme de cas d'utilisation &quot;&lt;/span&gt;&lt;span style=&quot;color: rgb(0, 0, 0); font-family: Calibri, sans-serif; font-size: 20px; text-align: start;&quot;&gt;Rechercher Covoitureur&lt;/span&gt;&lt;span style=&quot;color: rgb(0, 0, 0); font-family: Calibri, sans-serif; font-size: 20px; text-align: start;&quot;&gt;&quot;&lt;/span&gt;&lt;/span&gt;" style="text;strokeColor=none;fillColor=none;html=1;fontSize=24;fontStyle=1;verticalAlign=middle;align=center;fontColor=#070303;" parent="1" vertex="1">
                    <mxGeometry x="212" y="597" width="493" height="47" as="geometry"/>
                </mxCell>
                <mxCell id="22" value="Conducteur&lt;br&gt;Passager" style="shape=umlActor;verticalLabelPosition=bottom;verticalAlign=top;html=1;fillColor=#6a00ff;strokeColor=#3700CC;fontColor=#050505;" vertex="1" parent="1">
                    <mxGeometry x="55" y="586" width="30" height="60" as="geometry"/>
                </mxCell>
                <mxCell id="23" value="" style="endArrow=none;html=1;fontColor=#070303;exitX=0.5;exitY=0.5;exitDx=0;exitDy=0;exitPerimeter=0;fillColor=#6a00ff;strokeColor=#3700CC;entryX=0;entryY=0.5;entryDx=0;entryDy=0;" edge="1" parent="1" source="22" target="5">
                    <mxGeometry width="50" height="50" relative="1" as="geometry">
                        <mxPoint x="77" y="688" as="sourcePoint"/>
                        <mxPoint x="251" y="172" as="targetPoint"/>
                    </mxGeometry>
                </mxCell>
            </root>
        </mxGraphModel>
    </diagram>
</mxfile>